<svg width="47" height="46" viewBox="0 0 47 46" fill="none" xmlns="http://www.w3.org/2000/svg">
<path opacity="0.4" d="M46.4168 22.9988C46.4168 35.6235 36.1309 45.9044 23.5002 45.9044C10.8695 45.9044 0.583496 35.6235 0.583496 22.9988C0.583496 10.3521 10.8695 0.0711212 23.5002 0.0711212C36.1309 0.0711212 46.4168 10.3521 46.4168 22.9988Z" fill="url(#paint0_linear_1503_569)"/>
<path d="M32.6667 22.9989C32.6667 23.5781 32.4844 24.1595 32.1198 24.6251C32.0514 24.7164 31.7324 25.0929 31.4818 25.3379L31.3451 25.4716C29.431 27.501 24.6686 30.5528 22.2533 31.5307C22.2533 31.553 20.8177 32.1344 20.1341 32.1545H20.043C18.9948 32.1545 18.015 31.5775 17.5137 30.6419C17.2402 30.1273 16.9896 28.6348 16.9668 28.6148C16.7617 27.276 16.625 25.2266 16.625 22.9767C16.625 20.6176 16.7617 18.4769 17.0124 17.1626C17.0124 17.1403 17.263 15.9374 17.4225 15.5364C17.6732 14.9594 18.1289 14.4671 18.6986 14.1553C19.1543 13.9347 19.6328 13.8211 20.1341 13.8211C20.6582 13.8456 21.638 14.1775 22.0254 14.3335C24.5775 15.3136 29.4538 18.5214 31.3223 20.4817C31.6413 20.7936 31.9831 21.1745 32.0742 21.2614C32.4616 21.7515 32.6667 22.3529 32.6667 22.9989Z" fill="url(#paint1_linear_1503_569)"/>
<defs>
<linearGradient id="paint0_linear_1503_569" x1="23.5002" y1="0.0711212" x2="-4.66469" y2="17.1954" gradientUnits="userSpaceOnUse">
<stop stop-color="#FFDAA9"/>
<stop offset="1" stop-color="#FDB478"/>
</linearGradient>
<linearGradient id="paint1_linear_1503_569" x1="24.6458" y1="13.8211" x2="14.1225" y2="19.4196" gradientUnits="userSpaceOnUse">
<stop stop-color="#FFDAA9"/>
<stop offset="1" stop-color="#FDB478"/>
</linearGradient>
</defs>
</svg>
