<svg width="147" height="208" viewBox="0 0 147 208" fill="none" xmlns="http://www.w3.org/2000/svg">
<path d="M146.654 104.315C146.654 140.069 140.564 166.358 128.805 182.973C116.836 199.587 98.5678 208 73.7898 208C49.6418 208 31.5833 199.377 19.1943 181.921C7.01528 164.465 0.925781 138.597 0.925781 104.315C0.925781 68.3519 6.8053 42.0627 18.9843 25.2376C30.9533 8.41254 49.2218 0 73.9998 0C97.9378 0 116.206 8.83316 128.385 26.2892C140.564 43.7452 146.654 69.6137 146.654 104.315ZM55.1013 104.315C55.1013 127.24 56.5712 143.013 59.301 151.426C62.2407 160.049 66.8604 164.255 73.5798 164.255C80.2993 164.255 85.1289 159.838 88.0686 151.005C90.7984 142.172 92.2683 126.609 92.2683 104.315C92.2683 81.8119 90.7984 66.2487 88.0686 57.2053C85.1289 48.1618 80.5092 43.7452 73.7898 43.7452C67.0704 43.7452 62.2408 48.1618 59.511 56.7846C56.5712 65.4075 55.1013 81.181 55.1013 104.315Z" fill="url(#paint0_linear_1948_481)"/>
<defs>
<linearGradient id="paint0_linear_1948_481" x1="73.7898" y1="0" x2="-30.0267" y2="44.2232" gradientUnits="userSpaceOnUse">
<stop stop-color="#FF6572"/>
<stop offset="1" stop-color="#A7426F"/>
</linearGradient>
</defs>
</svg>
