 <svg
        xmlns="http://www.w3.org/2000/svg"
        width="46"
        height="44"
        viewBox="0 0 46 44"
        fill="none"
      >
        <g clip-path="url(#clip0_1872_1130)">
          <path
            d="M2.5551 39.2228C2.77272 40.8808 4.11987 42.1762 5.78826 42.3212C11.2909 42.8083 17.0629 43.4819 23.0007 43.4819C28.9385 43.4819 34.7002 42.8083 40.2028 42.3212C41.8712 42.1762 43.2183 40.8808 43.4463 39.2228C44.0266 34.9326 44.7416 30.4559 44.7416 25.8446C44.7416 21.2332 44.0266 16.7565 43.4463 12.4663C43.2183 10.8083 41.8815 9.52331 40.2131 9.36787C34.7105 8.88082 28.9385 8.20724 23.0007 8.20724C17.0629 8.20724 11.3012 8.88082 5.79863 9.36787C4.13023 9.51294 2.78308 10.8083 2.5551 12.4663C1.97479 16.7565 1.25977 21.2332 1.25977 25.8446C1.25977 30.4559 1.97479 34.9326 2.5551 39.2228Z"
            stroke="url(#paint0_linear_1872_1130)"
            stroke-linecap="round"
            stroke-linejoin="round"
          />
          <path
            d="M11.6848 32.487C11.8091 33.3161 12.4827 33.9482 13.3221 34.0207C16.4101 34.2694 19.6537 34.6114 23.0008 34.6114C26.348 34.6114 29.5915 34.2591 32.6796 34.0207C33.5086 33.9482 34.1822 33.3264 34.3065 32.4974C34.6278 30.3627 35.0215 28.1451 35.0215 25.8549C35.0215 23.5648 34.6278 21.3368 34.3065 19.2124C34.1822 18.3834 33.5086 17.7513 32.6692 17.6891C29.5811 17.4404 26.3376 17.0984 22.9905 17.0984C19.6433 17.0984 16.3998 17.4508 13.3117 17.6891C12.4827 17.7616 11.8091 18.3834 11.6848 19.2124C11.3635 21.3368 10.9697 23.5648 10.9697 25.8549C10.9697 28.1451 11.3635 30.3627 11.6848 32.4974V32.487Z"
            stroke="url(#paint1_linear_1872_1130)"
            stroke-linecap="round"
            stroke-linejoin="round"
          />
          <path
            d="M14.3477 0.518127L22.3269 8.20725"
            stroke="url(#paint2_linear_1872_1130)"
            stroke-linecap="round"
            stroke-linejoin="round"
          />
          <path
            d="M23.6738 8.20725L31.6531 0.518127"
            stroke="url(#paint3_linear_1872_1130)"
            stroke-linecap="round"
            stroke-linejoin="round"
          />
        </g>
        <defs>
          <linearGradient
            id="paint0_linear_1872_1130"
            x1="23.0007"
            y1="8.20724"
            x2="-0.433637"
            y2="25.7704"
            gradientUnits="userSpaceOnUse"
          >
            <stop stop-color="#FFDAA9" />
            <stop offset="1" stop-color="#FDB478" />
          </linearGradient>
          <linearGradient
            id="paint1_linear_1872_1130"
            x1="22.9956"
            y1="17.0984"
            x2="11.0683"
            y2="27.0579"
            gradientUnits="userSpaceOnUse"
          >
            <stop stop-color="#FFDAA9" />
            <stop offset="1" stop-color="#FDB478" />
          </linearGradient>
          <linearGradient
            id="paint2_linear_1872_1130"
            x1="18.3373"
            y1="0.518127"
            x2="13.5337"
            y2="3.54894"
            gradientUnits="userSpaceOnUse"
          >
            <stop stop-color="#FFDAA9" />
            <stop offset="1" stop-color="#FDB478" />
          </linearGradient>
          <linearGradient
            id="paint3_linear_1872_1130"
            x1="27.6635"
            y1="0.518127"
            x2="22.8598"
            y2="3.54894"
            gradientUnits="userSpaceOnUse"
          >
            <stop stop-color="#FFDAA9" />
            <stop offset="1" stop-color="#FDB478" />
          </linearGradient>
          <clipPath id="clip0_1872_1130">
            <rect
              width="44.5181"
              height="44"
              fill="white"
              transform="translate(0.741211)"
            />
          </clipPath>
        </defs>
      </svg>