<svg xmlns="http://www.w3.org/2000/svg" width="45" height="44" viewBox="0 0 45 44" fill="none">
  <g clip-path="url(#clip0_164_1865)">
    <path d="M22.4386 43.4777C17.1214 43.4777 11.94 43.0494 6.95711 42.4853C4.08437 42.151 1.67126 40.0513 1.20118 37.189C0.731092 34.3058 0.511719 31.3181 0.511719 27.2023C0.511719 23.0864 0.731092 20.0988 1.20118 17.2156C1.67126 14.3533 4.07392 12.2536 6.95711 11.9297C11.94 11.3656 17.111 10.9373 22.4386 10.9373C27.7662 10.9373 32.9372 11.3656 37.9201 11.9297C40.7928 12.2536 43.2059 14.3637 43.676 17.2156C44.1461 20.0988 44.3655 23.0864 44.3655 27.2023C44.3655 31.3181 44.1461 34.3058 43.676 37.189C43.2059 40.0513 40.8033 42.151 37.9201 42.4853C32.9372 43.0494 27.7662 43.4777 22.4386 43.4777Z" stroke="url(#paint0_linear_164_1865)" stroke-width="1.25" stroke-linecap="round" stroke-linejoin="round"/>
    <path d="M41.7331 0.522316L6.6543 11.9193" stroke="url(#paint1_linear_164_1865)" stroke-width="1.25" stroke-linecap="round" stroke-linejoin="round"/>
    <path d="M32.958 32.0807H34.713" stroke="url(#paint2_linear_164_1865)" stroke-width="1.25" stroke-linecap="round" stroke-linejoin="round"/>
    <path d="M32.958 23.3162H34.713" stroke="url(#paint3_linear_164_1865)" stroke-width="1.25" stroke-linecap="round" stroke-linejoin="round"/>
    <path d="M17.1843 33.8357C21.6762 33.8357 24.1938 31.3077 24.1938 26.8262C24.1938 22.3447 21.6658 19.8167 17.1843 19.8167C12.7028 19.8167 10.1748 22.3447 10.1748 26.8262C10.1748 31.3077 12.7028 33.8357 17.1843 33.8357Z" stroke="url(#paint4_linear_164_1865)" stroke-width="1.25" stroke-linecap="round" stroke-linejoin="round"/>
  </g>
  <defs>
    <linearGradient id="paint0_linear_164_1865" x1="22.4386" y1="10.9373" x2="0.355057" y2="29.0322" gradientUnits="userSpaceOnUse">
      <stop stop-color="#FFDAA9"/>
      <stop offset="1" stop-color="#FDB478"/>
    </linearGradient>
    <linearGradient id="paint1_linear_164_1865" x1="24.1937" y1="0.522316" x2="17.6356" y2="12.7949" gradientUnits="userSpaceOnUse">
      <stop stop-color="#FFDAA9"/>
      <stop offset="1" stop-color="#FDB478"/>
    </linearGradient>
    <linearGradient id="paint2_linear_164_1865" x1="33.8355" y1="32.0807" x2="33.1448" y2="32.8177" gradientUnits="userSpaceOnUse">
      <stop stop-color="#FFDAA9"/>
      <stop offset="1" stop-color="#FDB478"/>
    </linearGradient>
    <linearGradient id="paint3_linear_164_1865" x1="33.8355" y1="23.3162" x2="33.1448" y2="24.0532" gradientUnits="userSpaceOnUse">
      <stop stop-color="#FFDAA9"/>
      <stop offset="1" stop-color="#FDB478"/>
    </linearGradient>
    <linearGradient id="paint4_linear_164_1865" x1="17.1843" y1="19.8167" x2="8.56955" y2="25.0545" gradientUnits="userSpaceOnUse">
      <stop stop-color="#FFDAA9"/>
      <stop offset="1" stop-color="#FDB478"/>
    </linearGradient>
    <clipPath id="clip0_164_1865">
      <rect width="44.8775" height="44" fill="white"/>
    </clipPath>
  </defs>
</svg>
