<svg width="23" height="18" viewBox="0 0 23 18" fill="none" xmlns="http://www.w3.org/2000/svg">
<path d="M19.8844 4.4859C19.899 4.68325 19.899 4.87946 19.899 5.07568C19.899 11.0806 15.3285 18 6.97582 18C4.40246 18 2.01178 17.2546 0 15.96C0.365368 16.0018 0.717203 16.0164 1.09723 16.0164C3.22065 16.0164 5.17492 15.2992 6.73675 14.0757C4.73963 14.034 3.06616 12.7258 2.48879 10.9261C2.76958 10.9678 3.0515 10.996 3.34695 10.996C3.75404 10.996 4.16339 10.9396 4.54342 10.8415C2.46059 10.4197 0.901015 8.59178 0.901015 6.38379V6.3274C1.50658 6.66458 2.20912 6.87545 2.95339 6.90365C1.72986 6.08946 0.928079 4.69678 0.928079 3.12141C0.928079 2.27791 1.15249 1.50432 1.54605 0.829971C3.78223 3.58489 7.14384 5.38579 10.9125 5.58314C10.8426 5.24483 10.7998 4.89412 10.7998 4.54229C10.7998 2.03884 12.8251 0 15.3421 0C16.6502 0 17.8309 0.548052 18.6608 1.43441C19.687 1.23706 20.6703 0.857035 21.5432 0.337176C21.206 1.39155 20.4877 2.27791 19.546 2.84062C20.4606 2.74139 21.347 2.48879 22.1611 2.13695C21.5432 3.03684 20.7707 3.83862 19.8844 4.4859Z" fill="white"/>
</svg>
