<svg width="18" height="18" viewBox="0 0 18 18" fill="none" xmlns="http://www.w3.org/2000/svg">
<path fill-rule="evenodd" clip-rule="evenodd" d="M13.5 0H4.5C2.02522 0 0 2.02432 0 4.5V13.5C0 15.9748 2.02522 18 4.5 18H13.5C15.9748 18 18 15.9748 18 13.5V4.5C18 2.02432 15.9748 0 13.5 0ZM8.99987 12.7501C6.92852 12.7501 5.24979 11.0707 5.24979 9.00028C5.24979 6.92893 6.92852 5.2502 8.99987 5.2502C11.0703 5.2502 12.7499 6.92893 12.7499 9.00028C12.7499 11.0707 11.0703 12.7501 8.99987 12.7501ZM12.7506 4.12506C12.7506 4.74628 13.2537 5.25006 13.8756 5.25006C14.4975 5.25006 15.0006 4.74628 15.0006 4.12506C15.0006 3.50383 14.4975 3.00006 13.8756 3.00006C13.2537 3.00006 12.7506 3.50383 12.7506 4.12506Z" fill="white"/>
</svg>
