<svg width="66" height="161" viewBox="0 0 66 161" fill="none" xmlns="http://www.w3.org/2000/svg">
<g clip-path="url(#clip0_1389_918)">
<path d="M65.2644 84.3857C63.2104 85.2035 61.0094 85.7764 59.1288 86.8882C55.4391 89.0741 52.8236 92.368 50.7621 96.0991C50.5548 96.4722 50.3211 96.834 50.0837 97.2297C50.3513 93.6267 50.5887 90.0954 50.8827 86.5678C51.0184 84.9171 51.7872 83.9636 53.4228 83.093C55.2959 82.0943 57.12 80.3908 58.1602 78.5403C61.3561 72.8494 62.4943 66.5857 62.2003 60.0695C62.1777 59.5305 61.9931 58.9992 61.8159 58.1474C55.4542 62.4363 51.9869 68.2289 50.4342 75.3595C50.1138 72.2917 49.6767 69.2276 49.5335 66.1485C49.4882 65.131 49.9028 63.7554 50.6189 63.0958C55.718 58.4075 56.1175 52.3397 55.6916 46.0986C55.4881 43.125 54.7457 40.1891 54.2105 37.242C54.1502 36.9141 53.8449 36.6276 53.5547 36.1641C48.4631 41.561 46.5523 47.8511 46.8652 55.0457C45.8589 52.1777 44.6868 49.3511 43.9406 46.4152C43.6843 45.4089 44.4381 44.1049 44.8526 42.9818C45.58 41.0183 46.9594 39.1264 47.08 37.144C47.4606 30.7973 46.1491 24.6957 43.217 18.9973C42.9155 18.4131 42.4896 17.8968 41.9356 17.0677C39.8627 20.2372 38.8753 23.4557 38.702 26.8062C38.5324 30.1265 38.8753 33.4732 38.9922 36.7143C37.3603 34.2081 35.5324 31.6114 33.9646 28.8602C33.5086 28.0574 33.3767 26.5424 33.8365 25.8376C36.2786 22.1141 35.6869 18.2548 34.5638 14.4182C33.0789 9.33034 30.2637 5.04523 25.8353 1.20107C24.2411 8.55774 25.2964 15.1267 28.1757 21.3603C25.971 19.2686 23.6683 17.1091 21.407 14.9044C21.1319 14.6368 20.9397 14.1393 20.9435 13.7511C20.9887 10.6494 19.3756 8.38437 17.2199 6.46229C13.6584 3.28521 9.07555 2.35055 4.34196 0.48877C5.22762 4.3367 6.57684 7.34796 8.79666 9.94465C11.4574 13.0577 14.8116 14.7385 18.8593 15.6506C20.9472 16.1217 22.6846 18.1493 24.4409 19.6606C19.2513 18.8352 12.0981 19.2875 9.76524 20.8892C12.2979 24.5751 15.6709 27.0323 20.1105 27.5449C22.206 27.7861 24.4748 27.477 26.5288 26.9117C29.6192 26.0637 29.8981 25.9658 31.7938 28.6529C32.834 30.1303 33.8214 31.6453 34.7485 33.2998C29.9395 30.5561 24.6708 30.884 19.3832 30.5373C19.3832 30.9443 19.2927 31.2345 19.3945 31.4116C22.3153 36.492 26.3441 40.1175 32.3704 40.8939C33.7686 41.0748 35.2347 40.7846 36.6631 40.664C38.2799 40.5283 39.3803 41.0296 39.9984 42.6841C40.9331 45.1903 42.0562 47.6287 42.9833 50.199C38.7397 46.3473 33.3126 45.0886 28.3755 42.8122C28.221 42.9479 28.0627 43.0836 27.9082 43.2192C28.5489 44.723 29.1406 46.2531 29.8416 47.7305C31.496 51.2166 33.4257 54.5708 36.8176 56.6173C38.5361 57.6537 40.5374 58.3848 42.5084 58.8069C45.5461 59.4589 46.0586 59.6964 46.6541 62.7076C47.2119 65.5191 47.6754 68.3495 47.9581 71.2929C44.9921 65.6435 39.6178 62.6398 35.1065 58.7278C34.9068 58.7956 34.7033 58.8597 34.5035 58.9275C34.7221 60.7969 34.8163 62.6888 35.1819 64.528C36.2673 69.9625 38.6417 74.7074 43.0926 78.2011C44.016 78.9247 45.1202 79.4297 46.1792 79.9611C48.0674 80.9033 48.9644 82.3505 48.8174 84.495C48.6101 87.4912 48.4895 90.4949 48.1315 93.574C46.2584 86.9145 41.4456 82.2073 37.7108 76.8029C37.4809 76.8255 37.251 76.8481 37.0249 76.8707C36.8364 78.4725 36.5085 80.0704 36.4784 81.6759C36.3842 86.5904 37.3527 91.3052 39.9344 95.5224C41.0612 97.3616 42.5838 98.9973 44.1064 100.546C45.8287 102.295 46.7069 104.025 45.727 106.546C44.5888 109.49 43.7597 112.55 42.8665 115.346C42.1768 112.082 41.6793 108.717 40.722 105.487C39.7723 102.276 38.359 99.2008 37.153 96.0652C36.9344 96.035 36.7158 96.0049 36.501 95.9747C35.8377 97.7159 34.9859 99.4081 34.545 101.206C32.8114 108.223 33.2448 114.996 37.2246 121.275C38.408 123.14 38.6115 124.908 37.1341 126.815C35.7322 128.624 34.5789 130.621 33.1091 132.468C34.4357 125.827 32.6681 119.435 32.246 112.425C31.4169 113.104 30.8968 113.394 30.5614 113.824C25.1796 120.777 23.4346 128.447 26.1105 136.953C26.7323 138.928 26.5326 140.544 24.6632 141.878C22.1947 143.639 19.8807 145.61 17.3631 147.347C21.1545 141.566 21.1168 134.929 22.4887 128.149C18.6483 129.664 16.1269 131.903 14.1069 134.737C11.5253 138.358 10.2062 142.38 10.2891 146.876C10.3682 151.18 10.3192 151.218 6.26027 152.672C4.22512 153.403 2.12591 153.961 0.00408173 154.609C0.399803 156.362 1.17995 156.965 2.84575 156.351C4.602 155.702 6.42986 155.243 8.22003 154.681C9.75016 154.202 10.9901 154.402 11.9247 155.895C13.338 158.152 15.5579 159.347 18.0566 159.905C23.4308 161.107 28.6468 160.447 33.6141 158.084C34.4847 157.67 35.197 156.935 36.2033 156.189C30.8365 151.512 25.0816 148.964 17.8078 150.174C20.608 148.033 23.1293 146.002 25.7863 144.162C26.3441 143.778 27.7084 143.759 28.1757 144.17C31.2812 146.899 34.8465 146.902 38.4683 145.979C43.3451 144.735 47.732 142.527 50.943 138.453C51.1653 138.17 51.3236 137.831 51.5045 137.529C48.4179 134.899 39.8854 133.38 32.4722 137.314C34.6204 134.258 36.6178 131.269 38.7886 128.409C39.4896 127.486 40.5336 127.071 41.9469 127.602C44.6981 128.631 47.4493 128.028 49.899 126.604C54.7005 123.815 58.1112 119.722 60.3536 114.657C60.5534 114.204 60.6627 113.703 60.7757 113.217C60.8285 112.983 60.7833 112.727 60.7833 112.218C54.0598 112.395 48.0523 113.989 43.5298 119.428C45.0863 115.233 46.6013 111.023 48.2219 106.855C48.6478 105.758 49.4995 105.167 50.8751 105.223C53.5887 105.333 55.6012 103.859 57.3688 101.956C61.2129 97.8139 63.5646 92.8994 64.9402 87.4686C65.0119 87.1821 65.1664 86.9145 65.2832 86.6394C65.2832 85.8857 65.2832 85.1357 65.2832 84.3819L65.2644 84.3857Z" fill="white"/>
</g>
<defs>
<clipPath id="clip0_1389_918">
<rect width="65.264" height="160" fill="white" transform="matrix(-1 0 0 1 65.2646 0.5)"/>
</clipPath>
</defs>
</svg>
