<svg width="66" height="161" viewBox="0 0 66 161" fill="none" xmlns="http://www.w3.org/2000/svg">
<g clip-path="url(#clip0_1389_911)">
<path d="M0.736617 84.3857C2.79061 85.2035 4.99158 85.7764 6.8722 86.8882C10.5618 89.0741 13.1774 92.368 15.2389 96.0991C15.4462 96.4722 15.6798 96.834 15.9173 97.2297C15.6497 93.6267 15.4123 90.0954 15.1183 86.5678C14.9826 84.9171 14.2138 83.9636 12.5781 83.093C10.7051 82.0943 8.88096 80.3908 7.84078 78.5403C4.64485 72.8494 3.50667 66.5857 3.80064 60.0695C3.82325 59.5305 4.00792 58.9992 4.18506 58.1474C10.5468 62.4363 14.014 68.2289 15.5668 75.3595C15.8871 72.2917 16.3243 69.2276 16.4675 66.1485C16.5128 65.131 16.0982 63.7554 15.3821 63.0958C10.2829 58.4075 9.88346 52.3397 10.3093 46.0986C10.5128 43.125 11.2553 40.1891 11.7905 37.242C11.8508 36.9141 12.156 36.6276 12.4462 36.1641C17.5379 41.561 19.4486 47.8511 19.1358 55.0457C20.1421 52.1777 21.3142 49.3511 22.0604 46.4152C22.3167 45.4089 21.5629 44.1049 21.1484 42.9818C20.421 41.0183 19.0416 39.1264 18.921 37.144C18.5404 30.7973 19.8519 24.6957 22.784 18.9973C23.0855 18.4131 23.5114 17.8968 24.0654 17.0677C26.1382 20.2372 27.1257 23.4557 27.299 26.8062C27.4686 30.1265 27.1256 33.4732 27.0088 36.7143C28.6407 34.2081 30.4686 31.6114 32.0364 28.8602C32.4924 28.0574 32.6243 26.5424 32.1645 25.8376C29.7223 22.1141 30.314 18.2548 31.4371 14.4182C32.922 9.33034 35.7373 5.04523 40.1656 1.20107C41.7598 8.55774 40.7046 15.1267 37.8252 21.3603C40.03 19.2686 42.3327 17.1091 44.594 14.9044C44.8691 14.6368 45.0613 14.1393 45.0575 13.7511C45.0123 10.6494 46.6253 8.38437 48.7811 6.46229C52.3426 3.28521 56.9254 2.35055 61.659 0.48877C60.7734 4.3367 59.4241 7.34796 57.2043 9.94465C54.5436 13.0577 51.1893 14.7385 47.1417 15.6506C45.0538 16.1217 43.3163 18.1493 41.5601 19.6606C46.7497 18.8352 53.9029 19.2875 56.2357 20.8892C53.7031 24.5751 50.3301 27.0323 45.8904 27.5449C43.795 27.7861 41.5262 27.477 39.4722 26.9117C36.3818 26.0637 36.1029 25.9658 34.2072 28.6529C33.167 30.1303 32.1796 31.6453 31.2525 33.2998C36.0614 30.5561 41.3302 30.884 46.6178 30.5373C46.6178 30.9443 46.7083 31.2345 46.6065 31.4116C43.6857 36.492 39.6569 40.1175 33.6306 40.8939C32.2324 41.0748 30.7663 40.7846 29.3379 40.664C27.7211 40.5283 26.6206 41.0296 26.0026 42.6841C25.0679 45.1903 23.9448 47.6287 23.0177 50.199C27.2613 46.3473 32.6884 45.0886 37.6255 42.8122C37.78 42.9479 37.9383 43.0836 38.0928 43.2192C37.4521 44.723 36.8604 46.2531 36.1594 47.7305C34.5049 51.2166 32.5753 54.5708 29.1834 56.6173C27.4648 57.6537 25.4636 58.3848 23.4925 58.8069C20.4549 59.4589 19.9423 59.6964 19.3469 62.7076C18.7891 65.5191 18.3255 68.3495 18.0429 71.2929C21.0089 65.6435 26.3832 62.6398 30.8944 58.7278C31.0942 58.7956 31.2977 58.8597 31.4974 58.9275C31.2789 60.7969 31.1846 62.6888 30.8191 64.528C29.7336 69.9625 27.3593 74.7074 22.9084 78.2011C21.985 78.9247 20.8808 79.4297 19.8217 79.9611C17.9336 80.9033 17.0366 82.3505 17.1836 84.495C17.3909 87.4912 17.5115 90.4949 17.8695 93.574C19.7426 86.9145 24.5553 82.2073 28.2902 76.8029C28.5201 76.8255 28.75 76.8481 28.9761 76.8707C29.1646 78.4725 29.4924 80.0704 29.5226 81.6759C29.6168 86.5904 28.6482 91.3052 26.0666 95.5224C24.9398 97.3616 23.4172 98.9973 21.8946 100.546C20.1722 102.295 19.2941 104.025 20.274 106.546C21.4122 109.49 22.2413 112.55 23.1345 115.346C23.8242 112.082 24.3217 108.717 25.2789 105.487C26.2287 102.276 27.642 99.2008 28.848 96.0652C29.0666 96.035 29.2852 96.0049 29.5 95.9747C30.1633 97.7159 31.015 99.4081 31.456 101.206C33.1896 108.223 32.7562 114.996 28.7764 121.275C27.593 123.14 27.3895 124.908 28.8668 126.815C30.2688 128.624 31.4221 130.621 32.8919 132.468C31.5653 125.827 33.3328 119.435 33.7549 112.425C34.5841 113.104 35.1042 113.394 35.4396 113.824C40.8214 120.777 42.5664 128.447 39.8905 136.953C39.2687 138.928 39.4684 140.544 41.3377 141.878C43.8063 143.639 46.1203 145.61 48.6379 147.347C44.8465 141.566 44.8842 134.929 43.5123 128.149C47.3527 129.664 49.874 131.903 51.8941 134.737C54.4757 138.358 55.7948 142.38 55.7119 146.876C55.6327 151.18 55.6817 151.218 59.7407 152.672C61.7759 153.403 63.8751 153.961 65.9969 154.609C65.6012 156.362 64.821 156.965 63.1552 156.351C61.399 155.702 59.5711 155.243 57.7809 154.681C56.2508 154.202 55.0109 154.402 54.0762 155.895C52.6629 158.152 50.4431 159.347 47.9444 159.905C42.5701 161.107 37.3541 160.447 32.3869 158.084C31.5163 157.67 30.804 156.935 29.7977 156.189C35.1645 151.512 40.9194 148.964 48.1932 150.174C45.3929 148.033 42.8716 146.002 40.2146 144.162C39.6569 143.778 38.2926 143.759 37.8252 144.17C34.7198 146.899 31.1545 146.902 27.5327 145.979C22.6559 144.735 18.269 142.527 15.058 138.453C14.8356 138.17 14.6774 137.831 14.4964 137.529C17.5831 134.899 26.1156 133.38 33.5288 137.314C31.3806 134.258 29.3832 131.269 27.2123 128.409C26.5113 127.486 25.4674 127.071 24.0541 127.602C21.3029 128.631 18.5517 128.028 16.102 126.604C11.3005 123.815 7.88977 119.722 5.64734 114.657C5.4476 114.204 5.3383 113.703 5.22524 113.217C5.17248 112.983 5.2177 112.727 5.2177 112.218C11.9412 112.395 17.9487 113.989 22.4712 119.428C20.9147 115.233 19.3996 111.023 17.7791 106.855C17.3532 105.758 16.5014 105.167 15.1258 105.223C12.4123 105.333 10.3998 103.859 8.63222 101.956C4.78806 97.8139 2.43634 92.8994 1.06073 87.4686C0.989126 87.1821 0.834606 86.9145 0.717773 86.6394C0.717773 85.8857 0.717773 85.1357 0.717773 84.3819L0.736617 84.3857Z" fill="white"/>
</g>
<defs>
<clipPath id="clip0_1389_911">
<rect width="65.264" height="160" fill="white" transform="translate(0.736328 0.5)"/>
</clipPath>
</defs>
</svg>
