<svg width="80" height="80" viewBox="0 0 80 80" fill="none" xmlns="http://www.w3.org/2000/svg">
<path opacity="0.4" d="M73.3334 40.0159C73.3334 58.379 58.372 73.3332 40.0001 73.3332C21.6281 73.3332 6.66675 58.379 6.66675 40.0159C6.66675 21.6207 21.6281 6.6665 40.0001 6.6665C58.372 6.6665 73.3334 21.6207 73.3334 40.0159Z" fill="url(#paint0_linear_251_239)"/>
<path d="M53.3333 40.016C53.3333 40.8585 53.0682 41.7042 52.5379 42.3814C52.4384 42.5142 51.9744 43.0618 51.6098 43.4182L51.411 43.6126C48.6269 46.5644 41.6998 51.0035 38.1866 52.4259C38.1866 52.4583 36.0985 53.304 35.1042 53.3332H34.9716C33.447 53.3332 32.0218 52.494 31.2926 51.1331C30.8949 50.3846 30.5303 48.2137 30.4972 48.1845C30.1989 46.2372 30 43.2562 30 39.9836C30 36.5523 30.1989 33.4385 30.5634 31.5268C30.5634 31.4944 30.928 29.7447 31.16 29.1614C31.5246 28.3222 32.1875 27.6062 33.0161 27.1525C33.679 26.8318 34.375 26.6665 35.1042 26.6665C35.8665 26.7021 37.2917 27.1849 37.8551 27.4117C41.5672 28.8374 48.66 33.5033 51.3778 36.3546C51.8419 36.8083 52.339 37.3623 52.4716 37.4887C53.035 38.2015 53.3333 39.0764 53.3333 40.016Z" fill="url(#paint1_linear_251_239)"/>
<defs>
<linearGradient id="paint0_linear_251_239" x1="40.0001" y1="6.6665" x2="-0.966981" y2="31.5745" gradientUnits="userSpaceOnUse">
<stop stop-color="#FFDAA9"/>
<stop offset="1" stop-color="#FDB478"/>
</linearGradient>
<linearGradient id="paint1_linear_251_239" x1="41.6667" y1="26.6665" x2="26.3599" y2="34.8097" gradientUnits="userSpaceOnUse">
<stop stop-color="#FFDAA9"/>
<stop offset="1" stop-color="#FDB478"/>
</linearGradient>
</defs>
</svg>
