<svg width="22" height="23" viewBox="0 0 22 23" fill="none" xmlns="http://www.w3.org/2000/svg">
<path fill-rule="evenodd" clip-rule="evenodd" d="M0 11.5064C0 5.43488 4.93726 0.5 11 0.5C17.0627 0.5 22 5.43488 22 11.5064C22 17.5651 17.0627 22.5 11 22.5C4.93726 22.5 0 17.5651 0 11.5064ZM15.0347 12.6196C15.1515 12.5029 15.3002 12.3225 15.332 12.28C15.5019 12.0572 15.5869 11.7812 15.5869 11.5064C15.5869 11.1975 15.4913 10.911 15.3108 10.6775C15.296 10.6627 15.267 10.6312 15.2293 10.5901C15.1587 10.5132 15.0573 10.4029 14.9604 10.3061C14.0898 9.37216 11.8176 7.84394 10.6284 7.37699C10.4479 7.30376 9.99131 7.14351 9.7471 7.1329C9.51351 7.1329 9.29053 7.18596 9.07818 7.29209C8.81274 7.44066 8.60038 7.67414 8.48359 7.95007C8.40926 8.1411 8.29247 8.71418 8.29247 8.72479C8.17567 9.35094 8.11196 10.3698 8.11196 11.4947C8.11196 12.5676 8.17567 13.5429 8.27123 14.1797C8.27386 14.1823 8.28299 14.2279 8.29718 14.2986C8.34031 14.5137 8.43018 14.9618 8.52606 15.1454C8.75965 15.5912 9.21621 15.8671 9.70463 15.8671H9.7471C10.0656 15.8565 10.7346 15.5806 10.7346 15.5699C11.86 15.103 14.0791 13.6491 14.971 12.6833L15.0347 12.6196Z" fill="url(#paint0_linear_10_718)"/>
<defs>
<linearGradient id="paint0_linear_10_718" x1="11" y1="0.5" x2="-2.51913" y2="8.71963" gradientUnits="userSpaceOnUse">
<stop stop-color="#FF6572"/>
<stop offset="1" stop-color="#A7426F"/>
</linearGradient>
</defs>
</svg>
