<svg width="41" height="40" viewBox="0 0 41 40" fill="none" xmlns="http://www.w3.org/2000/svg">
<path d="M19.4538 10.5864L18.4375 9.02393C11.4063 13.7502 7.5 19.4927 7.5 24.2189C7.5 28.7889 10.86 30.9377 13.7113 30.9377C17.305 30.9377 19.8438 27.8902 19.8438 24.6877C19.8438 21.9927 18.125 19.6877 15.82 18.8277C15.1563 18.5927 14.5313 18.3977 14.5313 17.2652C14.5313 15.8202 15.5863 13.6727 19.4538 10.5864ZM34.9613 10.5864L33.945 9.02393C26.9913 13.7502 23.0075 19.4927 23.0075 24.2189C23.0075 28.7889 26.445 30.9377 29.2963 30.9377C32.9288 30.9377 35.5075 27.8902 35.5075 24.6877C35.5075 21.9927 33.75 19.6877 31.3663 18.8277C30.7025 18.5927 30.1163 18.3977 30.1163 17.2652C30.1163 15.8202 31.21 13.6714 34.96 10.5852L34.9613 10.5864Z" fill="white"/>
</svg>
