<svg width="24" height="24" viewBox="0 0 24 24" fill="none" xmlns="http://www.w3.org/2000/svg">
<path d="M12.7272 15.1717C12.4539 15.4451 12.4539 15.8883 12.7272 16.1616C13.0006 16.435 13.4438 16.435 13.7172 16.1616L12.7272 15.1717ZM16.8889 12L17.3839 12.495C17.6572 12.2216 17.6572 11.7784 17.3839 11.505L16.8889 12ZM13.7172 7.83836C13.4438 7.56499 13.0006 7.56499 12.7272 7.83836C12.4539 8.11173 12.4539 8.55494 12.7272 8.82831L13.7172 7.83836ZM7.11111 11.3C6.72451 11.3 6.41111 11.6134 6.41111 12C6.41111 12.3866 6.72451 12.7 7.11111 12.7V11.3ZM23.7 12C23.7 5.53827 18.4617 0.3 12 0.3V1.7C17.6885 1.7 22.3 6.31147 22.3 12H23.7ZM12 0.3C5.53827 0.3 0.3 5.53827 0.3 12H1.7C1.7 6.31147 6.31147 1.7 12 1.7V0.3ZM0.3 12C0.3 18.4617 5.53827 23.7 12 23.7V22.3C6.31147 22.3 1.7 17.6885 1.7 12H0.3ZM12 23.7C18.4617 23.7 23.7 18.4617 23.7 12H22.3C22.3 17.6885 17.6885 22.3 12 22.3V23.7ZM13.7172 16.1616L17.3839 12.495L16.3939 11.505L12.7272 15.1717L13.7172 16.1616ZM17.3839 11.505L13.7172 7.83836L12.7272 8.82831L16.3939 12.495L17.3839 11.505ZM16.8889 11.3L7.11111 11.3V12.7L16.8889 12.7V11.3Z" fill="url(#paint0_linear_25_1199)"/>
<defs>
<linearGradient id="paint0_linear_25_1199" x1="12" y1="1" x2="-1.51913" y2="9.21963" gradientUnits="userSpaceOnUse">
<stop stop-color="#FF6572"/>
<stop offset="1" stop-color="#A7426F"/>
</linearGradient>
</defs>
</svg>
